<mxfile host="Electron" agent="Mozilla/5.0 (Windows NT 10.0; Win64; x64) AppleWebKit/537.36 (KHTML, like Gecko) draw.io/24.7.5 Chrome/126.0.6478.183 Electron/31.3.0 Safari/537.36" version="24.7.5">
  <diagram name="ページ1" id="QIqbBFtlbCM1oKvhPO8x">
    <mxGraphModel dx="3000" dy="1774" grid="1" gridSize="10" guides="1" tooltips="1" connect="1" arrows="1" fold="1" page="1" pageScale="1" pageWidth="1600" pageHeight="1200" math="0" shadow="0">
      <root>
        <mxCell id="0" />
        <mxCell id="T4lcWnXd6TqMleLlDLS1-3" value="名称未設定レイヤ" style="" parent="0" />
        <mxCell id="T4lcWnXd6TqMleLlDLS1-87" value="" style="rounded=0;whiteSpace=wrap;html=1;strokeWidth=3;" parent="T4lcWnXd6TqMleLlDLS1-3" vertex="1">
          <mxGeometry x="13" y="6" width="1580" height="2070" as="geometry" />
        </mxCell>
        <mxCell id="T4lcWnXd6TqMleLlDLS1-45" value="名称未設定レイヤ" style="" parent="0" />
        <mxCell id="FAVp8hVmRq8sVybLSnUk-2" value="&lt;font style=&quot;font-size: 24px;&quot;&gt;ユーザアカウントを&lt;/font&gt;&lt;div&gt;&lt;span style=&quot;font-size: 24px;&quot;&gt;所持している&lt;/span&gt;&lt;/div&gt;" style="rhombus;whiteSpace=wrap;html=1;" vertex="1" parent="T4lcWnXd6TqMleLlDLS1-45">
          <mxGeometry x="40" y="60" width="307.06" height="290" as="geometry" />
        </mxCell>
        <mxCell id="FAVp8hVmRq8sVybLSnUk-3" value="&lt;font style=&quot;font-size: 24px;&quot;&gt;メールアドレスと&lt;/font&gt;&lt;div&gt;&lt;font style=&quot;font-size: 24px;&quot;&gt;電話番号を登録&lt;/font&gt;&lt;/div&gt;" style="rounded=0;whiteSpace=wrap;html=1;" vertex="1" parent="T4lcWnXd6TqMleLlDLS1-45">
          <mxGeometry x="470" y="176" width="290" height="60" as="geometry" />
        </mxCell>
        <mxCell id="FAVp8hVmRq8sVybLSnUk-17" value="" style="edgeStyle=orthogonalEdgeStyle;rounded=0;orthogonalLoop=1;jettySize=auto;html=1;" edge="1" parent="T4lcWnXd6TqMleLlDLS1-45" source="FAVp8hVmRq8sVybLSnUk-4" target="FAVp8hVmRq8sVybLSnUk-7">
          <mxGeometry relative="1" as="geometry" />
        </mxCell>
        <mxCell id="FAVp8hVmRq8sVybLSnUk-4" value="&lt;font style=&quot;font-size: 24px;&quot;&gt;メールアドレスと&lt;/font&gt;&lt;div&gt;&lt;font style=&quot;font-size: 24px;&quot;&gt;パスワードを追加&lt;/font&gt;&lt;/div&gt;" style="rounded=0;whiteSpace=wrap;html=1;" vertex="1" parent="T4lcWnXd6TqMleLlDLS1-45">
          <mxGeometry x="890" y="176" width="290" height="60" as="geometry" />
        </mxCell>
        <mxCell id="FAVp8hVmRq8sVybLSnUk-5" value="" style="endArrow=classic;html=1;rounded=0;entryX=0;entryY=0.5;entryDx=0;entryDy=0;exitX=1;exitY=0.5;exitDx=0;exitDy=0;" edge="1" parent="T4lcWnXd6TqMleLlDLS1-45" source="FAVp8hVmRq8sVybLSnUk-2" target="FAVp8hVmRq8sVybLSnUk-3">
          <mxGeometry width="50" height="50" relative="1" as="geometry">
            <mxPoint x="1000" y="510" as="sourcePoint" />
            <mxPoint x="1050" y="460" as="targetPoint" />
          </mxGeometry>
        </mxCell>
        <mxCell id="FAVp8hVmRq8sVybLSnUk-6" value="" style="endArrow=classic;html=1;rounded=0;entryX=0;entryY=0.5;entryDx=0;entryDy=0;" edge="1" parent="T4lcWnXd6TqMleLlDLS1-45" target="FAVp8hVmRq8sVybLSnUk-4">
          <mxGeometry width="50" height="50" relative="1" as="geometry">
            <mxPoint x="760" y="206" as="sourcePoint" />
            <mxPoint x="880" y="206" as="targetPoint" />
          </mxGeometry>
        </mxCell>
        <mxCell id="FAVp8hVmRq8sVybLSnUk-7" value="&lt;span style=&quot;font-size: 24px;&quot;&gt;登録完了&lt;/span&gt;" style="rounded=0;whiteSpace=wrap;html=1;" vertex="1" parent="T4lcWnXd6TqMleLlDLS1-45">
          <mxGeometry x="1250" y="176" width="290" height="60" as="geometry" />
        </mxCell>
        <mxCell id="FAVp8hVmRq8sVybLSnUk-8" value="" style="endArrow=classic;html=1;rounded=0;entryX=0;entryY=0.5;entryDx=0;entryDy=0;exitX=1;exitY=0.5;exitDx=0;exitDy=0;" edge="1" parent="T4lcWnXd6TqMleLlDLS1-45" source="FAVp8hVmRq8sVybLSnUk-4" target="FAVp8hVmRq8sVybLSnUk-7">
          <mxGeometry width="50" height="50" relative="1" as="geometry">
            <mxPoint x="770" y="216" as="sourcePoint" />
            <mxPoint x="900" y="216" as="targetPoint" />
          </mxGeometry>
        </mxCell>
        <mxCell id="FAVp8hVmRq8sVybLSnUk-9" value="" style="endArrow=classic;html=1;rounded=0;entryX=0.5;entryY=0;entryDx=0;entryDy=0;exitX=0.5;exitY=0;exitDx=0;exitDy=0;" edge="1" parent="T4lcWnXd6TqMleLlDLS1-45" source="FAVp8hVmRq8sVybLSnUk-7" target="FAVp8hVmRq8sVybLSnUk-2">
          <mxGeometry width="50" height="50" relative="1" as="geometry">
            <mxPoint x="1140" y="160" as="sourcePoint" />
            <mxPoint x="1190" y="110" as="targetPoint" />
            <Array as="points">
              <mxPoint x="1395" y="60" />
            </Array>
          </mxGeometry>
        </mxCell>
        <mxCell id="FAVp8hVmRq8sVybLSnUk-10" value="&lt;span style=&quot;font-size: 24px;&quot;&gt;いいえ&lt;/span&gt;" style="text;html=1;align=center;verticalAlign=middle;whiteSpace=wrap;rounded=0;" vertex="1" parent="T4lcWnXd6TqMleLlDLS1-45">
          <mxGeometry x="350" y="160" width="100" height="30" as="geometry" />
        </mxCell>
        <mxCell id="FAVp8hVmRq8sVybLSnUk-11" value="&lt;span style=&quot;font-size: 24px;&quot;&gt;仮想集団内に&lt;/span&gt;&lt;div&gt;&lt;span style=&quot;font-size: 24px;&quot;&gt;責任者が３名いる&lt;/span&gt;&lt;/div&gt;" style="rhombus;whiteSpace=wrap;html=1;" vertex="1" parent="T4lcWnXd6TqMleLlDLS1-45">
          <mxGeometry x="40" y="410" width="307.06" height="290" as="geometry" />
        </mxCell>
        <mxCell id="FAVp8hVmRq8sVybLSnUk-25" value="" style="edgeStyle=orthogonalEdgeStyle;rounded=0;orthogonalLoop=1;jettySize=auto;html=1;" edge="1" parent="T4lcWnXd6TqMleLlDLS1-45" source="FAVp8hVmRq8sVybLSnUk-11" target="FAVp8hVmRq8sVybLSnUk-12">
          <mxGeometry relative="1" as="geometry" />
        </mxCell>
        <mxCell id="FAVp8hVmRq8sVybLSnUk-12" value="&lt;font style=&quot;font-size: 24px;&quot;&gt;メールアドレスでリアルの知り合いである&lt;font color=&quot;#ff0000&quot;&gt;&lt;b&gt;他ユーザ&lt;/b&gt;&lt;/font&gt;を招待&lt;/font&gt;" style="rounded=0;whiteSpace=wrap;html=1;" vertex="1" parent="T4lcWnXd6TqMleLlDLS1-45">
          <mxGeometry x="410" y="526" width="340" height="60" as="geometry" />
        </mxCell>
        <mxCell id="FAVp8hVmRq8sVybLSnUk-13" value="&lt;font style=&quot;font-size: 24px;&quot;&gt;メールアドレス(アカウント)を保持する&lt;font color=&quot;#ff0000&quot;&gt;&lt;b&gt;ユーザが招待承認&lt;/b&gt;&lt;/font&gt;&lt;/font&gt;" style="rounded=0;whiteSpace=wrap;html=1;" vertex="1" parent="T4lcWnXd6TqMleLlDLS1-45">
          <mxGeometry x="840" y="526" width="340" height="60" as="geometry" />
        </mxCell>
        <mxCell id="FAVp8hVmRq8sVybLSnUk-14" value="&lt;span style=&quot;font-size: 24px;&quot;&gt;登録完了&lt;/span&gt;" style="rounded=0;whiteSpace=wrap;html=1;" vertex="1" parent="T4lcWnXd6TqMleLlDLS1-45">
          <mxGeometry x="1260" y="526" width="290" height="60" as="geometry" />
        </mxCell>
        <mxCell id="FAVp8hVmRq8sVybLSnUk-16" value="" style="endArrow=classic;html=1;rounded=0;entryX=0;entryY=0.5;entryDx=0;entryDy=0;exitX=1;exitY=0.5;exitDx=0;exitDy=0;" edge="1" parent="T4lcWnXd6TqMleLlDLS1-45" source="FAVp8hVmRq8sVybLSnUk-12" target="FAVp8hVmRq8sVybLSnUk-13">
          <mxGeometry width="50" height="50" relative="1" as="geometry">
            <mxPoint x="770" y="216" as="sourcePoint" />
            <mxPoint x="900" y="216" as="targetPoint" />
          </mxGeometry>
        </mxCell>
        <mxCell id="FAVp8hVmRq8sVybLSnUk-18" value="" style="endArrow=classic;html=1;rounded=0;entryX=0;entryY=0.5;entryDx=0;entryDy=0;exitX=1;exitY=0.5;exitDx=0;exitDy=0;" edge="1" parent="T4lcWnXd6TqMleLlDLS1-45" source="FAVp8hVmRq8sVybLSnUk-13" target="FAVp8hVmRq8sVybLSnUk-14">
          <mxGeometry width="50" height="50" relative="1" as="geometry">
            <mxPoint x="1190" y="216" as="sourcePoint" />
            <mxPoint x="1260" y="216" as="targetPoint" />
          </mxGeometry>
        </mxCell>
        <mxCell id="FAVp8hVmRq8sVybLSnUk-19" value="" style="endArrow=classic;html=1;rounded=0;entryX=0.5;entryY=0;entryDx=0;entryDy=0;exitX=0.5;exitY=0;exitDx=0;exitDy=0;" edge="1" parent="T4lcWnXd6TqMleLlDLS1-45" source="FAVp8hVmRq8sVybLSnUk-14" target="FAVp8hVmRq8sVybLSnUk-11">
          <mxGeometry width="50" height="50" relative="1" as="geometry">
            <mxPoint x="1405" y="466" as="sourcePoint" />
            <mxPoint x="204" y="350" as="targetPoint" />
            <Array as="points">
              <mxPoint x="1405" y="410" />
            </Array>
          </mxGeometry>
        </mxCell>
        <mxCell id="FAVp8hVmRq8sVybLSnUk-20" value="" style="endArrow=classic;html=1;rounded=0;exitX=0.5;exitY=1;exitDx=0;exitDy=0;entryX=0.5;entryY=0;entryDx=0;entryDy=0;" edge="1" parent="T4lcWnXd6TqMleLlDLS1-45" source="FAVp8hVmRq8sVybLSnUk-2" target="FAVp8hVmRq8sVybLSnUk-11">
          <mxGeometry width="50" height="50" relative="1" as="geometry">
            <mxPoint x="190" y="440" as="sourcePoint" />
            <mxPoint x="240" y="390" as="targetPoint" />
          </mxGeometry>
        </mxCell>
        <mxCell id="FAVp8hVmRq8sVybLSnUk-21" value="&lt;font style=&quot;font-size: 24px;&quot;&gt;はい&lt;/font&gt;" style="text;html=1;align=center;verticalAlign=middle;whiteSpace=wrap;rounded=0;" vertex="1" parent="T4lcWnXd6TqMleLlDLS1-45">
          <mxGeometry x="110" y="364" width="60" height="30" as="geometry" />
        </mxCell>
        <mxCell id="FAVp8hVmRq8sVybLSnUk-22" value="&lt;span style=&quot;font-size: 24px;&quot;&gt;いいえ&lt;/span&gt;" style="text;html=1;align=center;verticalAlign=middle;whiteSpace=wrap;rounded=0;" vertex="1" parent="T4lcWnXd6TqMleLlDLS1-45">
          <mxGeometry x="320" y="500" width="100" height="30" as="geometry" />
        </mxCell>
        <mxCell id="FAVp8hVmRq8sVybLSnUk-23" value="&lt;span style=&quot;font-size: 24px;&quot;&gt;対象の&lt;/span&gt;&lt;span style=&quot;font-size: 24px; background-color: initial;&quot;&gt;政治団体は&lt;/span&gt;&lt;div&gt;&lt;span style=&quot;font-size: 24px; background-color: initial;&quot;&gt;既存政治団体だ&lt;/span&gt;&lt;/div&gt;" style="rhombus;whiteSpace=wrap;html=1;" vertex="1" parent="T4lcWnXd6TqMleLlDLS1-45">
          <mxGeometry x="40" y="740" width="307.06" height="290" as="geometry" />
        </mxCell>
        <mxCell id="FAVp8hVmRq8sVybLSnUk-24" value="&lt;span style=&quot;font-size: 24px;&quot;&gt;政治団体設立届を提出する&lt;/span&gt;" style="rounded=0;whiteSpace=wrap;html=1;" vertex="1" parent="T4lcWnXd6TqMleLlDLS1-45">
          <mxGeometry x="446" y="855" width="340" height="60" as="geometry" />
        </mxCell>
        <mxCell id="FAVp8hVmRq8sVybLSnUk-27" value="" style="edgeStyle=orthogonalEdgeStyle;rounded=0;orthogonalLoop=1;jettySize=auto;html=1;exitX=1;exitY=0.5;exitDx=0;exitDy=0;entryX=0;entryY=0.5;entryDx=0;entryDy=0;" edge="1" parent="T4lcWnXd6TqMleLlDLS1-45" source="FAVp8hVmRq8sVybLSnUk-23" target="FAVp8hVmRq8sVybLSnUk-24">
          <mxGeometry relative="1" as="geometry">
            <mxPoint x="357" y="755" as="sourcePoint" />
            <mxPoint x="420" y="756" as="targetPoint" />
          </mxGeometry>
        </mxCell>
        <mxCell id="FAVp8hVmRq8sVybLSnUk-28" value="&lt;span style=&quot;font-size: 24px;&quot;&gt;いいえ&lt;/span&gt;" style="text;html=1;align=center;verticalAlign=middle;whiteSpace=wrap;rounded=0;" vertex="1" parent="T4lcWnXd6TqMleLlDLS1-45">
          <mxGeometry x="329" y="840" width="100" height="30" as="geometry" />
        </mxCell>
        <mxCell id="FAVp8hVmRq8sVybLSnUk-29" value="&lt;span style=&quot;font-size: 24px;&quot;&gt;このシステムに&lt;/span&gt;&lt;div&gt;&lt;span style=&quot;font-size: 24px;&quot;&gt;登録がある&lt;/span&gt;&lt;/div&gt;" style="rhombus;whiteSpace=wrap;html=1;" vertex="1" parent="T4lcWnXd6TqMleLlDLS1-45">
          <mxGeometry x="40" y="1080" width="307.06" height="290" as="geometry" />
        </mxCell>
        <mxCell id="FAVp8hVmRq8sVybLSnUk-30" value="" style="edgeStyle=orthogonalEdgeStyle;rounded=0;orthogonalLoop=1;jettySize=auto;html=1;exitX=1;exitY=0.5;exitDx=0;exitDy=0;entryX=0;entryY=0.5;entryDx=0;entryDy=0;" edge="1" parent="T4lcWnXd6TqMleLlDLS1-45" source="FAVp8hVmRq8sVybLSnUk-29" target="FAVp8hVmRq8sVybLSnUk-31">
          <mxGeometry relative="1" as="geometry">
            <mxPoint x="337" y="1085" as="sourcePoint" />
            <mxPoint x="436" y="1085" as="targetPoint" />
          </mxGeometry>
        </mxCell>
        <mxCell id="FAVp8hVmRq8sVybLSnUk-31" value="&lt;span style=&quot;font-size: 24px;&quot;&gt;調査側に既存団体登録申請を行う&lt;/span&gt;" style="rounded=0;whiteSpace=wrap;html=1;" vertex="1" parent="T4lcWnXd6TqMleLlDLS1-45">
          <mxGeometry x="446" y="1195" width="394" height="60" as="geometry" />
        </mxCell>
        <mxCell id="FAVp8hVmRq8sVybLSnUk-32" value="&lt;span style=&quot;font-size: 24px;&quot;&gt;いいえ&lt;/span&gt;" style="text;html=1;align=center;verticalAlign=middle;whiteSpace=wrap;rounded=0;" vertex="1" parent="T4lcWnXd6TqMleLlDLS1-45">
          <mxGeometry x="329" y="1180" width="100" height="30" as="geometry" />
        </mxCell>
        <mxCell id="FAVp8hVmRq8sVybLSnUk-33" value="&lt;span style=&quot;font-size: 24px;&quot;&gt;代表者、会計責任者&lt;/span&gt;&lt;div&gt;&lt;span style=&quot;font-size: 24px;&quot;&gt;職務代行者が公開&lt;/span&gt;&lt;/div&gt;&lt;div&gt;&lt;span style=&quot;font-size: 24px;&quot;&gt;情報と一致し、&lt;/span&gt;&lt;span style=&quot;font-size: 24px; background-color: initial;&quot;&gt;かつ&lt;/span&gt;&lt;/div&gt;&lt;div&gt;&lt;span style=&quot;font-size: 24px; background-color: initial;&quot;&gt;管理開始を承認&lt;/span&gt;&lt;/div&gt;" style="rhombus;whiteSpace=wrap;html=1;" vertex="1" parent="T4lcWnXd6TqMleLlDLS1-45">
          <mxGeometry x="40" y="1530" width="307.06" height="290" as="geometry" />
        </mxCell>
        <mxCell id="FAVp8hVmRq8sVybLSnUk-45" value="" style="edgeStyle=orthogonalEdgeStyle;rounded=0;orthogonalLoop=1;jettySize=auto;html=1;" edge="1" parent="T4lcWnXd6TqMleLlDLS1-45" source="FAVp8hVmRq8sVybLSnUk-34" target="FAVp8hVmRq8sVybLSnUk-33">
          <mxGeometry relative="1" as="geometry" />
        </mxCell>
        <mxCell id="FAVp8hVmRq8sVybLSnUk-34" value="&lt;span style=&quot;font-size: 24px;&quot;&gt;管理開始申請を行う&lt;/span&gt;" style="rounded=0;whiteSpace=wrap;html=1;" vertex="1" parent="T4lcWnXd6TqMleLlDLS1-45">
          <mxGeometry x="41" y="1425" width="304" height="60" as="geometry" />
        </mxCell>
        <mxCell id="FAVp8hVmRq8sVybLSnUk-35" value="&lt;span style=&quot;font-size: 24px;&quot;&gt;政治団体管理開始&lt;/span&gt;&lt;div&gt;&lt;span style=&quot;font-size: 24px;&quot;&gt;(仮想団体から政治団体に移行)&lt;/span&gt;&lt;/div&gt;" style="rounded=0;whiteSpace=wrap;html=1;" vertex="1" parent="T4lcWnXd6TqMleLlDLS1-45">
          <mxGeometry x="26" y="1885" width="334" height="85" as="geometry" />
        </mxCell>
        <mxCell id="FAVp8hVmRq8sVybLSnUk-36" value="&lt;span style=&quot;font-size: 24px;&quot;&gt;調査側で不足している情報を&lt;/span&gt;&lt;div&gt;&lt;span style=&quot;font-size: 24px;&quot;&gt;追加して登録完了&lt;/span&gt;&lt;/div&gt;" style="rounded=0;whiteSpace=wrap;html=1;" vertex="1" parent="T4lcWnXd6TqMleLlDLS1-45">
          <mxGeometry x="966" y="1195" width="424" height="60" as="geometry" />
        </mxCell>
        <mxCell id="FAVp8hVmRq8sVybLSnUk-37" value="" style="edgeStyle=orthogonalEdgeStyle;rounded=0;orthogonalLoop=1;jettySize=auto;html=1;exitX=1;exitY=0.5;exitDx=0;exitDy=0;entryX=0;entryY=0.5;entryDx=0;entryDy=0;" edge="1" parent="T4lcWnXd6TqMleLlDLS1-45" source="FAVp8hVmRq8sVybLSnUk-31" target="FAVp8hVmRq8sVybLSnUk-36">
          <mxGeometry relative="1" as="geometry">
            <mxPoint x="817" y="1305" as="sourcePoint" />
            <mxPoint x="906" y="1305" as="targetPoint" />
          </mxGeometry>
        </mxCell>
        <mxCell id="FAVp8hVmRq8sVybLSnUk-38" value="" style="edgeStyle=orthogonalEdgeStyle;rounded=0;orthogonalLoop=1;jettySize=auto;html=1;exitX=0.533;exitY=0.01;exitDx=0;exitDy=0;exitPerimeter=0;entryX=0.527;entryY=0.036;entryDx=0;entryDy=0;entryPerimeter=0;" edge="1" parent="T4lcWnXd6TqMleLlDLS1-45" source="FAVp8hVmRq8sVybLSnUk-36" target="FAVp8hVmRq8sVybLSnUk-29">
          <mxGeometry relative="1" as="geometry">
            <mxPoint x="850" y="1085" as="sourcePoint" />
            <mxPoint x="470" y="1030" as="targetPoint" />
            <Array as="points">
              <mxPoint x="1213" y="1080" />
              <mxPoint x="202" y="1080" />
            </Array>
          </mxGeometry>
        </mxCell>
        <mxCell id="FAVp8hVmRq8sVybLSnUk-39" value="" style="endArrow=classic;html=1;rounded=0;exitX=0.5;exitY=1;exitDx=0;exitDy=0;entryX=0.5;entryY=0;entryDx=0;entryDy=0;" edge="1" parent="T4lcWnXd6TqMleLlDLS1-45" source="FAVp8hVmRq8sVybLSnUk-11" target="FAVp8hVmRq8sVybLSnUk-23">
          <mxGeometry width="50" height="50" relative="1" as="geometry">
            <mxPoint x="354" y="670" as="sourcePoint" />
            <mxPoint x="354" y="730" as="targetPoint" />
          </mxGeometry>
        </mxCell>
        <mxCell id="FAVp8hVmRq8sVybLSnUk-40" value="&lt;font style=&quot;font-size: 24px;&quot;&gt;はい&lt;/font&gt;" style="text;html=1;align=center;verticalAlign=middle;whiteSpace=wrap;rounded=0;" vertex="1" parent="T4lcWnXd6TqMleLlDLS1-45">
          <mxGeometry x="109" y="704" width="60" height="30" as="geometry" />
        </mxCell>
        <mxCell id="FAVp8hVmRq8sVybLSnUk-41" value="" style="endArrow=classic;html=1;rounded=0;exitX=0.5;exitY=1;exitDx=0;exitDy=0;entryX=0.5;entryY=0;entryDx=0;entryDy=0;" edge="1" parent="T4lcWnXd6TqMleLlDLS1-45" source="FAVp8hVmRq8sVybLSnUk-23" target="FAVp8hVmRq8sVybLSnUk-29">
          <mxGeometry width="50" height="50" relative="1" as="geometry">
            <mxPoint x="284" y="1000" as="sourcePoint" />
            <mxPoint x="200" y="1080" as="targetPoint" />
          </mxGeometry>
        </mxCell>
        <mxCell id="FAVp8hVmRq8sVybLSnUk-43" value="" style="endArrow=classic;html=1;rounded=0;exitX=0.5;exitY=1;exitDx=0;exitDy=0;entryX=0.5;entryY=0;entryDx=0;entryDy=0;" edge="1" parent="T4lcWnXd6TqMleLlDLS1-45" source="FAVp8hVmRq8sVybLSnUk-29" target="FAVp8hVmRq8sVybLSnUk-34">
          <mxGeometry width="50" height="50" relative="1" as="geometry">
            <mxPoint x="234" y="1370" as="sourcePoint" />
            <mxPoint x="234" y="1420" as="targetPoint" />
          </mxGeometry>
        </mxCell>
        <mxCell id="FAVp8hVmRq8sVybLSnUk-44" value="" style="endArrow=classic;html=1;rounded=0;exitX=0.5;exitY=1;exitDx=0;exitDy=0;entryX=0.5;entryY=0;entryDx=0;entryDy=0;" edge="1" parent="T4lcWnXd6TqMleLlDLS1-45" source="FAVp8hVmRq8sVybLSnUk-34" target="FAVp8hVmRq8sVybLSnUk-33">
          <mxGeometry width="50" height="50" relative="1" as="geometry">
            <mxPoint x="434" y="1400" as="sourcePoint" />
            <mxPoint x="433" y="1455" as="targetPoint" />
          </mxGeometry>
        </mxCell>
        <mxCell id="FAVp8hVmRq8sVybLSnUk-46" value="" style="endArrow=classic;html=1;rounded=0;exitX=0.5;exitY=1;exitDx=0;exitDy=0;" edge="1" parent="T4lcWnXd6TqMleLlDLS1-45" source="FAVp8hVmRq8sVybLSnUk-33" target="FAVp8hVmRq8sVybLSnUk-35">
          <mxGeometry width="50" height="50" relative="1" as="geometry">
            <mxPoint x="443" y="1605" as="sourcePoint" />
            <mxPoint x="444" y="1650" as="targetPoint" />
          </mxGeometry>
        </mxCell>
        <mxCell id="FAVp8hVmRq8sVybLSnUk-47" value="&lt;font style=&quot;font-size: 24px;&quot;&gt;はい&lt;/font&gt;" style="text;html=1;align=center;verticalAlign=middle;whiteSpace=wrap;rounded=0;" vertex="1" parent="T4lcWnXd6TqMleLlDLS1-45">
          <mxGeometry x="109" y="1044" width="60" height="30" as="geometry" />
        </mxCell>
        <mxCell id="FAVp8hVmRq8sVybLSnUk-48" value="&lt;font style=&quot;font-size: 24px;&quot;&gt;はい&lt;/font&gt;" style="text;html=1;align=center;verticalAlign=middle;whiteSpace=wrap;rounded=0;" vertex="1" parent="T4lcWnXd6TqMleLlDLS1-45">
          <mxGeometry x="109" y="1374" width="60" height="30" as="geometry" />
        </mxCell>
        <mxCell id="FAVp8hVmRq8sVybLSnUk-49" value="&lt;font style=&quot;font-size: 24px;&quot;&gt;はい&lt;/font&gt;" style="text;html=1;align=center;verticalAlign=middle;whiteSpace=wrap;rounded=0;" vertex="1" parent="T4lcWnXd6TqMleLlDLS1-45">
          <mxGeometry x="109" y="1504" width="60" height="30" as="geometry" />
        </mxCell>
        <mxCell id="FAVp8hVmRq8sVybLSnUk-50" value="&lt;font style=&quot;font-size: 24px;&quot;&gt;はい&lt;/font&gt;" style="text;html=1;align=center;verticalAlign=middle;whiteSpace=wrap;rounded=0;" vertex="1" parent="T4lcWnXd6TqMleLlDLS1-45">
          <mxGeometry x="109" y="1824" width="60" height="30" as="geometry" />
        </mxCell>
        <mxCell id="FAVp8hVmRq8sVybLSnUk-51" value="&lt;span style=&quot;font-size: 24px;&quot;&gt;各責任者が管理開始承認を行う&lt;/span&gt;" style="rounded=0;whiteSpace=wrap;html=1;" vertex="1" parent="T4lcWnXd6TqMleLlDLS1-45">
          <mxGeometry x="446" y="1645" width="394" height="60" as="geometry" />
        </mxCell>
        <mxCell id="FAVp8hVmRq8sVybLSnUk-52" value="" style="edgeStyle=orthogonalEdgeStyle;rounded=0;orthogonalLoop=1;jettySize=auto;html=1;exitX=1;exitY=0.5;exitDx=0;exitDy=0;entryX=0;entryY=0.5;entryDx=0;entryDy=0;" edge="1" parent="T4lcWnXd6TqMleLlDLS1-45" source="FAVp8hVmRq8sVybLSnUk-33" target="FAVp8hVmRq8sVybLSnUk-51">
          <mxGeometry relative="1" as="geometry">
            <mxPoint x="357" y="1545" as="sourcePoint" />
            <mxPoint x="456" y="1545" as="targetPoint" />
          </mxGeometry>
        </mxCell>
        <mxCell id="FAVp8hVmRq8sVybLSnUk-54" value="" style="edgeStyle=orthogonalEdgeStyle;rounded=0;orthogonalLoop=1;jettySize=auto;html=1;exitX=0.526;exitY=0.014;exitDx=0;exitDy=0;exitPerimeter=0;entryX=0.5;entryY=0;entryDx=0;entryDy=0;" edge="1" parent="T4lcWnXd6TqMleLlDLS1-45" source="FAVp8hVmRq8sVybLSnUk-51" target="FAVp8hVmRq8sVybLSnUk-33">
          <mxGeometry relative="1" as="geometry">
            <mxPoint x="1293" y="1646" as="sourcePoint" />
            <mxPoint x="282" y="1540" as="targetPoint" />
            <Array as="points">
              <mxPoint x="650" y="1646" />
              <mxPoint x="650" y="1530" />
            </Array>
          </mxGeometry>
        </mxCell>
        <mxCell id="FAVp8hVmRq8sVybLSnUk-55" value="&lt;span style=&quot;font-size: 24px;&quot;&gt;いいえ&lt;/span&gt;" style="text;html=1;align=center;verticalAlign=middle;whiteSpace=wrap;rounded=0;" vertex="1" parent="T4lcWnXd6TqMleLlDLS1-45">
          <mxGeometry x="339" y="1630" width="100" height="30" as="geometry" />
        </mxCell>
        <mxCell id="FAVp8hVmRq8sVybLSnUk-56" value="&lt;span style=&quot;font-size: 24px;&quot;&gt;選挙管理委員からの届出受理を登録&lt;/span&gt;" style="rounded=0;whiteSpace=wrap;html=1;" vertex="1" parent="T4lcWnXd6TqMleLlDLS1-45">
          <mxGeometry x="976" y="855" width="464" height="60" as="geometry" />
        </mxCell>
        <mxCell id="FAVp8hVmRq8sVybLSnUk-57" value="" style="edgeStyle=orthogonalEdgeStyle;rounded=0;orthogonalLoop=1;jettySize=auto;html=1;exitX=1;exitY=0.5;exitDx=0;exitDy=0;entryX=0;entryY=0.5;entryDx=0;entryDy=0;" edge="1" parent="T4lcWnXd6TqMleLlDLS1-45" source="FAVp8hVmRq8sVybLSnUk-24" target="FAVp8hVmRq8sVybLSnUk-56">
          <mxGeometry relative="1" as="geometry">
            <mxPoint x="827" y="885" as="sourcePoint" />
            <mxPoint x="926" y="885" as="targetPoint" />
          </mxGeometry>
        </mxCell>
        <mxCell id="FAVp8hVmRq8sVybLSnUk-58" value="" style="edgeStyle=orthogonalEdgeStyle;rounded=0;orthogonalLoop=1;jettySize=auto;html=1;exitX=1;exitY=0.5;exitDx=0;exitDy=0;entryX=1;entryY=0.5;entryDx=0;entryDy=0;" edge="1" parent="T4lcWnXd6TqMleLlDLS1-45" source="FAVp8hVmRq8sVybLSnUk-56" target="FAVp8hVmRq8sVybLSnUk-35">
          <mxGeometry relative="1" as="geometry">
            <mxPoint x="1447" y="955" as="sourcePoint" />
            <mxPoint x="1546" y="955" as="targetPoint" />
          </mxGeometry>
        </mxCell>
      </root>
    </mxGraphModel>
  </diagram>
</mxfile>
